# xmcd
#
# Track frame offsets:
#	183
#	20183
#	40923
#	52070
#	72723
#	87340
#	104043
#	119168
#	130733
#	150125
#	163060
#	173850
#	186015
#
# Disc length: 2625 seconds
#
# Revision: 2
# Processed by: cddbd v1.5.1PL0 Copyright (c) Steve Scherf et al.
# Submitted via: audiograbber 1.83.01
#
DISCID=bd0a3f0d
DTITLE=The Bellamy Brothers and Friends - Greatest Hits - Live in Concert
DYEAR=1900
DGENRE=Country
TTITLE0=The Bellamy Brothers - If I Said You Had A Beautiful Body
TTITLE1=Nitty Gritty Dirt Band - Cadillac Ranch
TTITLE2=George Jones - No Show Jones
TTITLE3=Nitty Gritty Dirt Band - Mr. Bojangles
TTITLE4=Lynn Anderson - Cry
TTITLE5=The Bellamy Brothers - Redneck Girl
TTITLE6=George Jones - I Always Get Lucky With You
TTITLE7=Jeannie C. Riley - Total Woman
TTITLE8=Jeannie C. Riley - Harper Valley PTA
TTITLE9=Lynn Anderson - I Never Promised You A Rose Garden
TTITLE10=The Bellamy Brothers - Sugar Daddy
TTITLE11=George Jones - She's My Rock
TTITLE12=The Bellamy Brothers - Let Your Love Flow
EXTD=
EXTT0=
EXTT1=
EXTT2=
EXTT3=
EXTT4=
EXTT5=
EXTT6=
EXTT7=
EXTT8=
EXTT9=
EXTT10=
EXTT11=
EXTT12=
PLAYORDER=
